<svg id="Layer_1" data-name="Layer 1" xmlns="http://www.w3.org/2000/svg" viewBox="0 0 20 16.25"><defs><style>.cls-1{fill:#bdd4e0;}</style></defs><title>twitter.20wide</title><path class="cls-1" d="M6.29,20A11.6,11.6,0,0,0,18,8.33c0-.18,0-0.35,0-0.53a8.35,8.35,0,0,0,2-2.12,8.19,8.19,0,0,1-2.36.65A4.12,4.12,0,0,0,19.45,4a8.22,8.22,0,0,1-2.61,1,4.11,4.11,0,0,0-7,3.74A11.65,11.65,0,0,1,1.39,4.5,4.11,4.11,0,0,0,2.66,10,4.07,4.07,0,0,1,.8,9.46s0,0,0,.05a4.11,4.11,0,0,0,3.29,4,4.1,4.1,0,0,1-1.85.07,4.11,4.11,0,0,0,3.83,2.85A8.23,8.23,0,0,1,1,18.21a8.35,8.35,0,0,1-1-.06A11.62,11.62,0,0,0,6.29,20" transform="translate(0 -3.75)"/></svg>